<svg width="21" height="22" viewBox="0 0 21 22" fill="none" xmlns="http://www.w3.org/2000/svg">
    <path
        d="M4.19623 19.2694C4.1359 18.8785 4.07556 18.5156 4.07556 18.1526C3.95489 14.6066 3.83422 11.0886 3.74371 7.57053C3.71354 6.09072 3.83421 4.63883 3.83421 3.18694C3.83421 2.60059 3.80405 2.01425 3.71354 1.45584C3.59287 0.897414 3.04984 0.534442 2.50681 0.506522C1.96378 0.450679 1.39058 0.75781 1.14923 1.26039C1.02856 1.51168 0.968222 1.76297 0.907886 2.01426C0.244183 4.7226 0.0330034 7.45885 0.00283558 10.251C-0.0273322 13.0989 0.183848 15.9468 0.606205 18.7669C0.787215 19.7999 1.11907 20.6376 2.17496 21.2239C2.56715 21.4194 2.899 21.559 3.32135 21.4752C3.62304 21.4473 3.89455 21.3635 4.16607 21.3077C5.43314 21.0005 6.70021 20.7213 7.99745 20.6655C8.44997 20.6376 8.9025 20.5538 9.32486 20.47C9.83772 20.3304 10.0791 19.9954 10.0187 19.5766C9.95838 19.1578 9.62653 18.9065 9.11367 18.8785C8.60081 18.8785 8.11812 18.8785 7.60526 18.9344C6.48903 19.0461 5.40297 19.1578 4.19623 19.2694Z"
        fill="black" />
    <path
        d="M8.41977 14.132C8.32927 13.9924 8.2991 13.9366 8.2991 13.8528C7.99742 12.5684 7.90691 11.2282 8.05775 9.91595C8.05775 9.7205 8.1181 9.52506 8.1181 9.32961C8.1181 8.99456 7.93708 8.74327 7.57506 8.63158C7.18287 8.5199 6.88119 8.63158 6.67001 8.91079C6.54934 9.07832 6.45884 9.30169 6.3985 9.49714C6.03648 11.0049 6.09681 12.5126 6.45883 13.9924C6.57951 14.5788 6.79069 15.1372 7.09237 15.6677C7.51473 16.4215 8.44994 16.5612 9.11365 15.9469C9.47567 15.6398 9.71702 15.193 9.98853 14.8021C10.0489 14.7463 10.1092 14.6346 10.1997 14.495C10.26 15.2209 10.2902 15.8631 10.4109 16.5053C10.4712 17.0358 10.5919 17.5663 10.7729 18.041C11.0143 18.5715 11.6176 18.7948 12.1908 18.6832C12.764 18.5715 13.1864 18.1527 13.2165 17.5663C13.2165 17.2871 13.126 16.98 13.126 16.6728C13.0959 15.3326 13.0657 13.9924 13.0657 12.6522C13.0355 11.7587 13.0657 10.8653 13.0355 9.99971C12.9752 9.07832 12.9149 8.18485 12.7942 7.29138C12.7037 6.62127 12.1908 6.2583 11.5875 6.2583C11.0444 6.28622 10.6522 6.67711 10.5316 7.34722C10.4712 7.73811 10.4712 8.15693 10.3505 8.54782C9.89802 9.97179 9.4455 11.3958 8.99297 12.7918C8.84213 13.2386 8.63095 13.6574 8.41977 14.132Z"
        fill="black" />
    <path
        d="M16.799 6.8483C16.799 6.17188 16.1768 5.61625 15.4509 5.64041C14.6991 5.66456 14.1287 6.2202 14.1547 6.89661C14.1806 7.57303 14.7509 8.08035 15.4768 8.08035C16.2027 8.08035 16.799 7.52472 16.799 6.8483Z"
        fill="black" />
    <path fill-rule="evenodd" clip-rule="evenodd"
        d="M15.3586 8.57572C14.7552 8.60364 14.2725 8.99453 14.2423 9.63672C14.182 10.7256 14.1518 13.4898 14.182 13.769C14.2122 14.6067 14.2122 15.4443 14.3027 16.2819C14.363 16.8403 14.8155 17.1475 15.3887 17.1475C15.9318 17.1196 16.3541 16.7287 16.4145 16.1702C16.4748 15.4164 16.5351 14.6346 16.5653 13.8807C16.6256 12.9872 16.686 12.0658 16.7161 11.1724C16.7463 10.6419 16.7463 10.0835 16.6558 9.55296C16.5351 8.91077 16.0223 8.5478 15.3586 8.57572Z"
        fill="black" />
    <path
        d="M21 15.9472C21 15.1654 20.276 14.5232 19.4313 14.5512C18.5564 14.5791 17.8927 15.2213 17.9229 16.0031C17.953 16.7849 18.6167 17.3712 19.4614 17.3712C20.3062 17.3712 21 16.729 21 15.9472Z"
        fill="black" />
</svg>